<?xml version="1.0" standalone="no"?>
<!DOCTYPE svg PUBLIC "-//W3C//DTD SVG 1.1//EN" "http://www.w3.org/Graphics/SVG/1.1/DTD/svg11.dtd" >
<svg xmlns="http://www.w3.org/2000/svg" xmlns:xlink="http://www.w3.org/1999/xlink" version="1.1">
<metadata></metadata>
<defs>
<font id="font_awesome_5_brandsregular" horiz-adv-x="876" >
<font-face units-per-em="2048" ascent="1792" descent="-256" />
<missing-glyph horiz-adv-x="800" />
<glyph horiz-adv-x="0" />
<glyph horiz-adv-x="682" />
<glyph unicode=" "  horiz-adv-x="800" />
<glyph unicode="&#x09;" horiz-adv-x="800" />
<glyph unicode="&#xa0;" horiz-adv-x="800" />
<glyph unicode="-" d="M148 704v140h580v-140h-580z" />
<glyph unicode="." horiz-adv-x="476" d="M132 224v212h212v-212h-212z" />
<glyph unicode="0" horiz-adv-x="1228" d="M104 952q0 748 512 748q248 0 378 -190t130 -554q0 -748 -508 -748q-512 0 -512 744zM276 956q0 -608 340 -608t340 608q0 600 -340 600t-340 -600z" />
<glyph unicode="1" horiz-adv-x="1340" d="M264 224v140h320v1108l-300 -188v160l372 240h96v-1320h324v-140h-812z" />
<glyph unicode="2" horiz-adv-x="1240" d="M132 1520q188 180 480 180q199 0 318 -104q118 -103 118 -280q0 -232 -244 -500l-416 -452h720v-140h-940v128l512 564q196 220 196 392q0 248 -268 248q-208 0 -412 -168z" />
<glyph unicode="3" horiz-adv-x="1188" d="M108 388l68 132q200 -168 420 -168q316 0 316 272q0 268 -336 268h-168v144h136q336 0 336 276q0 116 -72 180q-71 64 -200 64q-208 0 -412 -168l-64 132q188 180 484 180q196 0 314 -100t118 -272q0 -265 -232 -356q264 -72 264 -352q0 -192 -128 -302t-352 -110 q-300 0 -492 180z" />
<glyph unicode="4" horiz-adv-x="1260" d="M100 540v128l704 1016h136v-1004h220v-140h-220v-316h-168v316h-672zM276 680h496v716z" />
<glyph unicode="5" horiz-adv-x="1288" d="M156 388l64 132q204 -168 416 -168q151 0 240 86q88 85 88 238q0 143 -86 234q-86 90 -230 90q-205 0 -332 -172h-116v856h872v-140h-704v-520q125 116 308 116q207 0 332 -128q124 -127 124 -336q0 -208 -136 -338t-360 -130q-288 0 -480 180z" />
<glyph unicode="6" horiz-adv-x="1244" d="M112 916q0 368 148 576t412 208t456 -180l-64 -132q-196 168 -388 168q-188 0 -292 -168q-104 -169 -104 -468v-32q104 252 396 252q201 0 328 -130q128 -131 128 -334q0 -200 -134 -334t-338 -134q-264 0 -406 184t-142 524zM328 676q0 -148 90 -238t234 -90 q140 0 226 90q86 91 86 238q0 143 -86 234q-86 90 -226 90q-144 0 -234 -92t-90 -232z" />
<glyph unicode="7" horiz-adv-x="1228" d="M132 1540v144h964v-128l-684 -1332h-180l680 1316h-780z" />
<glyph unicode="8" horiz-adv-x="1228" d="M92 612q0 133 82 228q82 96 222 132q-272 80 -272 340q0 172 136 280q137 108 356 108q216 0 352 -108t136 -280q0 -256 -268 -340q144 -36 222 -132t78 -228q0 -185 -142 -294q-143 -110 -378 -110q-239 0 -382 110q-142 109 -142 294zM260 620q0 -272 356 -272t356 272 q0 120 -96 192q-97 73 -260 92q-356 -41 -356 -284zM292 1300q0 -116 86 -188t238 -92q148 19 234 92q86 72 86 188q0 119 -86 190q-85 70 -234 70q-153 0 -238 -70q-86 -71 -86 -190z" />
<glyph unicode="9" horiz-adv-x="1220" d="M100 388l64 128q204 -168 392 -168t292 168q104 169 104 472v28q-48 -117 -154 -182q-106 -66 -246 -66q-200 0 -326 128t-126 332t134 338t334 134q264 0 408 -186t144 -526q0 -369 -148 -574q-149 -206 -416 -206q-264 0 -456 180zM268 1232q0 -147 86 -236 q85 -88 226 -88q144 0 234 90t90 234q0 148 -90 236q-89 88 -238 88q-140 0 -224 -88t-84 -236z" />
<glyph unicode="@" horiz-adv-x="1916" d="M104 788q-4 400 248 652t628 256q376 0 606 -228t230 -532q-5 -289 -124 -434q-120 -146 -292 -146q-232 0 -244 184h-4q-112 -184 -316 -184q-136 0 -218 96q-82 95 -82 264q0 224 122 382t314 158q97 0 168 -46q72 -47 96 -122l24 144h136l-96 -560q-8 -43 -8 -76 q0 -128 132 -128q100 0 178 118t82 350q0 255 -188 446q-188 190 -516 186q-320 0 -534 -214t-210 -566q5 -345 202 -550q198 -206 542 -206q356 0 496 192h180q-184 -312 -676 -312q-396 -4 -636 240t-240 636zM664 724q0 -121 58 -188q59 -68 146 -68q148 0 240 128 t92 304q0 240 -212 240q-144 0 -234 -126t-90 -290z" />
<glyph unicode="A" horiz-adv-x="1504" d="M36 224l640 1460h148l644 -1460h-172l-160 376h-764l-160 -376h-176zM432 740h644l-324 748z" />
<glyph unicode="B" horiz-adv-x="1452" d="M180 224v1460h584q224 0 348 -100t124 -284q0 -240 -228 -328q264 -72 264 -352q0 -188 -126 -292q-127 -104 -358 -104h-608zM348 364h424q332 0 332 260q0 268 -332 268h-424v-528zM348 1036h392q332 0 332 256q0 252 -332 252h-392v-508z" />
<glyph unicode="C" horiz-adv-x="1428" d="M128 956q0 344 182 544t494 200q305 0 496 -184l-64 -132q-188 168 -432 168q-240 0 -372 -154t-132 -442t132 -446t372 -158q236 0 432 168l64 -128q-184 -184 -496 -184q-313 0 -494 202q-182 203 -182 546z" />
<glyph unicode="D" horiz-adv-x="1584" d="M180 224v1460h488q353 0 544 -190q192 -190 192 -538q0 -352 -192 -542q-191 -190 -544 -190h-488zM348 368h312q568 0 568 588q0 584 -568 584h-312v-1172z" />
<glyph unicode="E" horiz-adv-x="1280" d="M180 224v1460h920v-140h-752v-508h712v-144h-712v-528h752v-140h-920z" />
<glyph unicode="F" horiz-adv-x="1260" d="M180 224v1460h900v-144h-732v-504h692v-144h-692v-668h-168z" />
<glyph unicode="G" horiz-adv-x="1460" d="M128 956q0 345 184 544q185 200 500 200q313 0 504 -184l-68 -132q-196 172 -436 172q-248 0 -380 -154t-132 -446q0 -297 136 -452q136 -156 392 -156q184 0 352 60v444h-364v132h516v-676q-187 -100 -508 -100q-328 0 -512 198q-184 197 -184 550z" />
<glyph unicode="H" horiz-adv-x="1568" d="M180 224v1460h168v-648h872v648h168v-1460h-168v668h-872v-668h-168z" />
<glyph unicode="I" horiz-adv-x="528" d="M180 224v1460h168v-1460h-168z" />
<glyph unicode="J" horiz-adv-x="504" d="M-12 4q124 -16 148 -16q104 0 146 58t42 202v1436h168v-1440q0 -212 -76 -306t-252 -94q-83 0 -176 16v144z" />
<glyph unicode="K" horiz-adv-x="1500" d="M180 224v1460h168v-672l716 672h216l-760 -712l800 -748h-220l-752 696v-696h-168z" />
<glyph unicode="L" horiz-adv-x="1260" d="M180 224v1460h168v-1316h732v-144h-900z" />
<glyph unicode="M" horiz-adv-x="1740" d="M180 224v1460h140l552 -1260l548 1260h140v-1460h-156v1084l-476 -1084h-116l-480 1076l4 -1076h-156z" />
<glyph unicode="N" horiz-adv-x="1528" d="M180 224v1460h128l880 -1176v1176h160v-1460h-128l-884 1172v-1172h-156z" />
<glyph unicode="O" horiz-adv-x="1584" d="M128 952q0 344 178 546t486 202q307 0 486 -200q178 -199 178 -544q0 -344 -180 -546t-484 -202t-484 200t-180 544zM300 956q0 -288 128 -446t364 -158q232 0 360 158t128 446q0 287 -128 444q-128 156 -360 156q-236 0 -364 -156q-128 -157 -128 -444z" />
<glyph unicode="P" horiz-adv-x="1420" d="M180 224v1460h580q228 0 354 -108t126 -300t-128 -302t-352 -110h-412v-640h-168zM348 1004h400q324 0 324 272q0 268 -324 268h-400v-540z" />
<glyph unicode="Q" horiz-adv-x="1584" d="M128 952q0 344 178 546t486 202q307 0 486 -200q178 -199 178 -544q0 -267 -110 -452q-109 -183 -310 -256q92 -164 264 -308l-116 -108q-182 138 -320 380q-28 -4 -72 -4q-304 0 -484 200t-180 544zM300 956q0 -288 128 -446t364 -158q232 0 360 158t128 446 q0 287 -128 444q-128 156 -360 156q-236 0 -364 -156q-128 -157 -128 -444z" />
<glyph unicode="R" horiz-adv-x="1504" d="M180 224v1460h580q237 0 362 -106q126 -106 126 -302q0 -292 -292 -380q129 -20 184 -180l184 -492h-176l-180 484q-32 88 -90 120q-59 32 -166 32h-364v-636h-168zM348 1000h396q336 0 336 276q0 268 -336 268h-396v-544z" />
<glyph unicode="S" horiz-adv-x="1280" d="M100 392l60 128q208 -168 484 -168q176 0 274 68q94 65 94 182v10q-4 107 -84 154q-78 45 -284 94q-193 47 -276 80q-244 100 -244 336q0 187 146 306q145 118 386 118q320 0 504 -184l-68 -132q-199 172 -436 172q-172 0 -268 -72t-96 -200q0 -108 80 -164 q82 -57 264 -100q123 -28 292 -84q252 -80 252 -316q0 -187 -146 -300q-145 -112 -390 -112q-348 0 -544 184z" />
<glyph unicode="T" horiz-adv-x="1236" d="M24 1540v144h1188v-144h-508v-1316h-172v1316h-508z" />
<glyph unicode="U" horiz-adv-x="1496" d="M168 796v888h168v-904q0 -428 412 -428t412 428v904h168v-888q0 -289 -148 -438q-148 -150 -432 -150q-580 0 -580 588z" />
<glyph unicode="V" horiz-adv-x="1428" d="M4 1684h180l532 -1248l536 1248h172l-636 -1460h-148z" />
<glyph unicode="W" horiz-adv-x="2276" d="M68 1684h172l412 -1220l424 1220l132 -4l416 -1220l416 1224h168l-512 -1460h-140l-416 1192l-420 -1192h-140z" />
<glyph unicode="X" horiz-adv-x="1336" d="M16 224l556 748l-528 712h200l424 -588l428 588h200l-532 -716l556 -744h-200l-452 620l-452 -620h-200z" />
<glyph unicode="Y" horiz-adv-x="1312" d="M-36 1684h196l464 -720l460 720h192l-572 -872v-588h-168v592z" />
<glyph unicode="Z" horiz-adv-x="1236" d="M92 224v124l836 1192h-836v144h1032v-124l-836 -1196h856v-140h-1052z" />
<glyph unicode="a" horiz-adv-x="1168" d="M100 740q0 240 126 390t330 150q244 0 348 -204v180h164v-1032h-164v188q-92 -204 -348 -204q-207 0 -332 146q-124 145 -124 386zM268 740q0 -188 84 -290t236 -102q151 0 234 104q82 103 82 292q0 396 -316 396q-152 0 -236 -106t-84 -294z" />
<glyph unicode="b" horiz-adv-x="1292" d="M160 224v1508h164v-660q96 208 348 208q208 0 334 -146t126 -386t-126 -390t-334 -150q-248 0 -348 208v-192h-164zM324 744q0 -188 84 -292t236 -104q148 0 232 106t84 294t-84 290t-232 102q-152 0 -236 -102t-84 -294z" />
<glyph unicode="c" horiz-adv-x="1064" d="M100 740q0 241 136 390q136 150 364 150t364 -136l-56 -124q-148 120 -300 120q-160 0 -248 -106t-88 -294q0 -185 88 -288q89 -104 248 -104q148 0 300 116l56 -120q-143 -136 -372 -136q-224 0 -358 146t-134 386z" />
<glyph unicode="d" horiz-adv-x="1168" d="M100 748q0 241 124 386q125 146 332 146q248 0 344 -200v652h168v-1508h-164v188q-92 -204 -348 -204q-204 0 -330 150t-126 390zM268 748q0 -188 84 -294t236 -106q151 0 234 104q82 103 82 292t-82 292q-83 104 -234 104q-152 0 -236 -102t-84 -290z" />
<glyph unicode="e" horiz-adv-x="1120" d="M100 744q0 237 136 386q136 150 348 150q204 0 320 -134t116 -370v-32h-752q0 -396 348 -396q184 0 332 120l56 -120q-152 -140 -388 -140q-244 0 -380 144q-136 143 -136 392zM272 852h600q-24 296 -288 296q-259 0 -312 -296z" />
<glyph unicode="f" horiz-adv-x="676" d="M16 1124v132h200v156q0 328 308 328q62 0 136 -20v-140q-47 16 -104 16q-176 0 -176 -204v-136h252v-132h-252v-900h-164v900h-200z" />
<glyph unicode="g" horiz-adv-x="1176" d="M100 768q0 228 126 370t334 142q248 0 352 -204v180h164v-1024q0 -464 -464 -464q-231 0 -404 104l28 136q193 -104 376 -104q300 0 300 312v244q-104 -204 -352 -204q-208 0 -334 140t-126 372zM268 768q0 -175 86 -276q85 -100 238 -100q149 0 234 100q86 101 86 276 q0 176 -86 274t-234 98q-152 0 -238 -98t-86 -274z" />
<glyph unicode="h" horiz-adv-x="1204" d="M160 224v1508h164v-644q104 192 348 192q372 0 372 -408v-648h-164v640q0 276 -240 276q-140 0 -228 -90q-88 -89 -88 -238v-588h-164z" />
<glyph unicode="i" horiz-adv-x="488" d="M144 1504v188h200v-188h-200zM160 224v1032h164v-1032h-164z" />
<glyph unicode="j" horiz-adv-x="456" d="M-112 -68q70 -16 100 -16q172 0 172 204v1136h164v-1156q0 -156 -78 -242t-222 -86q-62 0 -136 20v140zM144 1504v188h200v-188h-200z" />
<glyph unicode="k" horiz-adv-x="1232" d="M160 224v1508h164v-952l488 472h208l-516 -492l568 -536h-216l-532 496v-496h-164z" />
<glyph unicode="l" horiz-adv-x="484" d="M160 224v1508h164v-1508h-164z" />
<glyph unicode="m" horiz-adv-x="1788" d="M144 1256h156l16 -184q96 208 328 208q239 0 316 -200q101 200 344 200q340 0 340 -408v-648h-164v640q0 145 -52 210q-53 66 -164 66q-129 0 -202 -88q-74 -89 -74 -240v-588h-168v640q0 276 -212 276q-132 0 -208 -88t-76 -240v-588h-164v740q0 122 -16 292z" />
<glyph unicode="n" horiz-adv-x="1188" d="M144 1256h156l16 -188q101 212 356 212q372 0 372 -408v-648h-164v640q0 276 -240 276q-140 0 -228 -90q-88 -89 -88 -238v-588h-164v740q0 122 -16 292z" />
<glyph unicode="o" horiz-adv-x="1172" d="M100 744q0 244 132 390t352 146t354 -146t134 -390t-134 -390t-354 -146t-352 146t-132 390zM268 744q0 -396 316 -396q320 0 320 396q0 188 -84 292t-236 104q-151 0 -234 -104q-82 -103 -82 -292z" />
<glyph unicode="p" horiz-adv-x="1276" d="M144 1256h156l16 -200q96 224 356 224q208 0 334 -150t126 -390t-126 -386t-334 -146q-248 0 -348 208v-636h-164v1184q0 122 -16 292zM324 744q0 -188 84 -292t236 -104t234 102q82 101 82 290q0 188 -84 294t-232 106q-152 0 -236 -102t-84 -294z" />
<glyph unicode="q" horiz-adv-x="1184" d="M100 740q0 240 126 390t330 150q256 0 352 -220l20 196h156q-16 -112 -16 -292v-1184h-168v628q-92 -200 -344 -200q-207 0 -332 146q-124 145 -124 386zM268 740q0 -188 84 -290t236 -102q151 0 234 104q82 103 82 292q0 396 -316 396q-152 0 -236 -106t-84 -294z" />
<glyph unicode="r" d="M144 1256h156l16 -192q80 216 324 216q48 0 92 -12l-4 -152q-54 16 -108 16q-144 0 -224 -96q-72 -100 -72 -224v-588h-164v740q0 122 -16 292z" />
<glyph unicode="s" horiz-adv-x="1008" d="M96 344l56 120q152 -120 364 -120q236 0 236 156q0 112 -176 156l-176 40q-268 64 -268 276q0 136 108 222q109 86 288 86q228 0 364 -136l-56 -120q-144 120 -308 120q-232 0 -232 -160q0 -120 160 -156l172 -44q284 -72 284 -280q0 -136 -110 -216t-294 -80 q-257 0 -412 136z" />
<glyph unicode="t" horiz-adv-x="692" d="M16 1124v132h200v264l164 56v-320h296v-132h-296v-564q0 -208 180 -208q50 0 112 20v-140q-66 -24 -144 -24q-147 0 -230 86q-82 85 -82 242v588h-200z" />
<glyph unicode="u" horiz-adv-x="1172" d="M152 616v640h168v-636q0 -272 232 -272q136 0 220 88t84 236v584h164v-1032h-160v180q-100 -196 -336 -196q-372 0 -372 408z" />
<glyph unicode="v" horiz-adv-x="1088" d="M24 1252h176l348 -848l352 848h164l-444 -1028h-156z" />
<glyph unicode="w" horiz-adv-x="1780" d="M56 1256h172l292 -832l300 832h148l296 -836l296 836h164l-380 -1032h-160l-296 804l-292 -804h-160z" />
<glyph unicode="x" horiz-adv-x="1096" d="M24 224l428 532l-404 500h200l300 -380l296 380h204l-400 -500l424 -532h-200l-324 404l-324 -404h-200z" />
<glyph unicode="y" horiz-adv-x="1088" d="M24 1256h176l348 -852l352 852h164l-480 -1128q-132 -308 -472 -368l-36 128q144 36 220 88q76 59 124 168l40 92z" />
<glyph unicode="z" horiz-adv-x="1076" d="M104 224v116l648 784h-628v132h828v-124l-644 -776h664v-132h-868z" />
<glyph unicode="&#xad;" d="M148 704v140h580v-140h-580z" />
<glyph unicode="&#x2000;" horiz-adv-x="870" />
<glyph unicode="&#x2001;" horiz-adv-x="1740" />
<glyph unicode="&#x2002;" horiz-adv-x="870" />
<glyph unicode="&#x2003;" horiz-adv-x="1740" />
<glyph unicode="&#x2004;" horiz-adv-x="580" />
<glyph unicode="&#x2005;" horiz-adv-x="435" />
<glyph unicode="&#x2006;" horiz-adv-x="290" />
<glyph unicode="&#x2007;" horiz-adv-x="290" />
<glyph unicode="&#x2008;" horiz-adv-x="217" />
<glyph unicode="&#x2009;" horiz-adv-x="348" />
<glyph unicode="&#x200a;" horiz-adv-x="96" />
<glyph unicode="&#x2010;" d="M148 704v140h580v-140h-580z" />
<glyph unicode="&#x2011;" d="M148 704v140h580v-140h-580z" />
<glyph unicode="&#x2012;" d="M148 704v140h580v-140h-580z" />
<glyph unicode="&#x2013;" horiz-adv-x="1320" d="M148 704v140h1024v-140h-1024z" />
<glyph unicode="&#x2014;" horiz-adv-x="2344" d="M148 704v140h2048v-140h-2048z" />
<glyph unicode="&#x202f;" horiz-adv-x="348" />
<glyph unicode="&#x205f;" horiz-adv-x="435" />
<glyph unicode="&#x25fc;" horiz-adv-x="1260" d="M0 0v1260h1260v-1260h-1260z" />
</font>
</defs>
</svg>
